<svg xmlns="http://www.w3.org/2000/svg" viewBox="0 0 32 32"><path d="M21.97 4.174q-.321-.192-.656-.36t-.7-.314a6.249 6.249 0 00-.226-.09c-.208-.077-.418-.163-.633-.225a11.793 11.793 0 10-5.944 22.77v3.375c7.089-1.065 13.365-6.666 13.833-14.02A12.207 12.207 0 0021.97 4.174z" fill="#23d96c"/><path d="M13.171 30.071v-3.6a12.427 12.427 0 115.836-24.16q.478.115.946.269c.166.049.338.114.505.177l.151.056.253.1c.211.083.449.19.733.33q.358.179.7.384a12.838 12.838 0 015.984 11.726C27.815 22.635 21.77 28.78 13.9 29.961zm2.914-26.84h-.016a11.149 11.149 0 00-2.139 22.1l.516.1v3.144C21.361 27.227 26.592 21.735 27 15.27a11.542 11.542 0 00-5.36-10.552 8.918 8.918 0 00-1.263-.629q-.1-.045-.209-.084L20 3.941q-.212-.084-.43-.151a11.185 11.185 0 00-3.486-.558z" fill="#173647"/><path d="M13.7 8.383a1.093 1.093 0 01.961.369 2.54 2.54 0 01.442.672 3.169 3.169 0 01.14 2.8 3.845 3.845 0 01-2.417-1.874 1.964 1.964 0 01-.211-.813A1.188 1.188 0 0113.7 8.383zm-3.45 4.871a4.7 4.7 0 00.739.447 3.514 3.514 0 002.964-.084 3.713 3.713 0 00-2.031-2.094 2.224 2.224 0 00-.875-.195 1.144 1.144 0 00-.194 0 1.072 1.072 0 00-.6 1.926zm3.7 2.084a4.152 4.152 0 00-2.011-.177 2.681 2.681 0 00-1.011.214 2.125 2.125 0 00-.739.448 1.1 1.1 0 00.855 1.925 2 2 0 00.875-.195 3.728 3.728 0 002.031-2.214zm1.584 1.214a3.98 3.98 0 00-2.261 2.128 1.876 1.876 0 00-.195.8 1.158 1.158 0 002 .817 4.505 4.505 0 00.425-.739 3.6 3.6 0 00.028-3zm1.56-4.352a3.606 3.606 0 002.246-1.92 1.969 1.969 0 00.194-.817 1.162 1.162 0 00-1.089-1.186 1.112 1.112 0 00-.971.389 4.481 4.481 0 00-.428.739 2.941 2.941 0 00.049 2.794zm2.554 7.354a1.969 1.969 0 00-.195-.816 3.563 3.563 0 00-2.153-1.982 3.27 3.27 0 00-.137 2.86 2.517 2.517 0 00.425.68 1.217 1.217 0 002.065-.739zm2.55-3.812a4.532 4.532 0 00-.739-.425 2.686 2.686 0 00-1.011-.214 3.885 3.885 0 00-1.935.337 3.617 3.617 0 002.013 2.06 2.229 2.229 0 00.875.194 1.093 1.093 0 00.8-1.948z" fill="#173647"/></svg>